{
    "asset" : {
        "generator" : "Khronos glTF Blender I/O v1.3.48",
        "version" : "2.0"
    },
    "scene" : 0,
    "scenes" : [
        {
            "name" : "Scene",
            "nodes" : [
                0,
                1,
                2,
                3,
                4,
                5
            ]
        }
    ],
    "nodes" : [
        {
            "name" : "Light",
            "rotation" : [
                0.16907575726509094,
                0.27217137813568115,
                0.7558803558349609,
                0.570947527885437
            ],
            "translation" : [
                4.076245307922363,
                1.0054539442062378,
                5.903861999511719
            ]
        },
        {
            "camera" : 0,
            "name" : "Camera",
            "rotation" : [
                0.483536034822464,
                0.20870360732078552,
                0.33687159419059753,
                0.7804827094078064
            ],
            "translation" : [
                7.358891487121582,
                -6.925790786743164,
                4.958309173583984
            ]
        },
        {
            "mesh" : 0,
            "name" : "left_wheel_package://duckiebot_description/meshes/duckiebot_lef",
            "rotation" : [
                0.7071068286895752,
                0,
                0,
                0.7071067094802856
            ]
        },
        {
            "mesh" : 1,
            "name" : "camera_package://duckiebot_description/meshes/duckiebot_camera.",
            "rotation" : [
                0.7071068286895752,
                0,
                0,
                0.7071067094802856
            ]
        },
        {
            "mesh" : 2,
            "name" : "chassis_package://duckiebot_description/meshes/duckiebotFrame.d",
            "rotation" : [
                0.7071068286895752,
                0,
                0,
                0.7071067094802856
            ]
        },
        {
            "mesh" : 3,
            "name" : "right_wheel_package://duckiebot_description/meshes/duckiebot_ri",
            "rotation" : [
                0.7071068286895752,
                0,
                0,
                0.7071067094802856
            ]
        }
    ],
    "cameras" : [
        {
            "name" : "Camera",
            "perspective" : {
                "aspectRatio" : 1.7777777777777777,
                "yfov" : 0.39959648408210363,
                "zfar" : 100,
                "znear" : 0.10000000149011612
            },
            "type" : "perspective"
        }
    ],
    "materials" : [
        {
            "doubleSided" : true,
            "emissiveFactor" : [
                0,
                0,
                0
            ],
            "name" : "JoinedMaterial_#4",
            "pbrMetallicRoughness" : {
                "baseColorFactor" : [
                    0.14000000059604645,
                    0.14000000059604645,
                    0.14000000059604645,
                    1
                ],
                "metallicFactor" : 0,
                "roughnessFactor" : 0.8956292867660522
            }
        },
        {
            "doubleSided" : true,
            "emissiveFactor" : [
                0,
                0,
                0
            ],
            "name" : "gkmodel0_chassis_geom0_mat_001-material",
            "pbrMetallicRoughness" : {
                "baseColorFactor" : [
                    0.800000011920929,
                    0,
                    0,
                    1
                ],
                "metallicFactor" : 0,
                "roughnessFactor" : 0.8956292867660522
            }
        }
    ],
    "meshes" : [
        {
            "name" : "left_wheel_package://duckiebot_description/meshes/duckiebot_lef",
            "primitives" : [
                {
                    "attributes" : {
                        "POSITION" : 0,
                        "NORMAL" : 1
                    },
                    "indices" : 2,
                    "material" : 0
                }
            ]
        },
        {
            "name" : "camera_package://duckiebot_description/meshes/duckiebot_camera.",
            "primitives" : [
                {
                    "attributes" : {
                        "POSITION" : 3,
                        "NORMAL" : 4
                    },
                    "indices" : 5,
                    "material" : 0
                }
            ]
        },
        {
            "name" : "chassis_package://duckiebot_description/meshes/duckiebotFrame.d",
            "primitives" : [
                {
                    "attributes" : {
                        "POSITION" : 6,
                        "NORMAL" : 7
                    },
                    "indices" : 8,
                    "material" : 1
                }
            ]
        },
        {
            "name" : "right_wheel_package://duckiebot_description/meshes/duckiebot_ri",
            "primitives" : [
                {
                    "attributes" : {
                        "POSITION" : 9,
                        "NORMAL" : 10
                    },
                    "indices" : 11,
                    "material" : 0
                }
            ]
        }
    ],
    "accessors" : [
        {
            "bufferView" : 0,
            "componentType" : 5126,
            "count" : 3237,
            "max" : [
                0.032026998698711395,
                0.03202199935913086,
                -0.04607300087809563
            ],
            "min" : [
                -0.03204699978232384,
                -0.03202199935913086,
                -0.07309199869632721
            ],
            "type" : "VEC3"
        },
        {
            "bufferView" : 1,
            "componentType" : 5126,
            "count" : 3237,
            "type" : "VEC3"
        },
        {
            "bufferView" : 2,
            "componentType" : 5123,
            "count" : 9264,
            "type" : "SCALAR"
        },
        {
            "bufferView" : 3,
            "componentType" : 5126,
            "count" : 180,
            "max" : [
                0.07921499758958817,
                0.08992700278759003,
                0.023058999329805374
            ],
            "min" : [
                0.04978200048208237,
                0.045848000794649124,
                -0.02218100056052208
            ],
            "type" : "VEC3"
        },
        {
            "bufferView" : 4,
            "componentType" : 5126,
            "count" : 180,
            "type" : "VEC3"
        },
        {
            "bufferView" : 5,
            "componentType" : 5123,
            "count" : 732,
            "type" : "SCALAR"
        },
        {
            "bufferView" : 6,
            "componentType" : 5126,
            "count" : 4173,
            "max" : [
                0.0828000009059906,
                0.04569999873638153,
                0.06021200120449066
            ],
            "min" : [
                -0.11702799797058105,
                -0.03311000019311905,
                -0.05926499888300896
            ],
            "type" : "VEC3"
        },
        {
            "bufferView" : 7,
            "componentType" : 5126,
            "count" : 4173,
            "type" : "VEC3"
        },
        {
            "bufferView" : 8,
            "componentType" : 5123,
            "count" : 12114,
            "type" : "SCALAR"
        },
        {
            "bufferView" : 9,
            "componentType" : 5126,
            "count" : 3239,
            "max" : [
                0.03204699978232384,
                0.032072000205516815,
                0.07409100234508514
            ],
            "min" : [
                -0.032026998698711395,
                -0.031971998512744904,
                0.04707299917936325
            ],
            "type" : "VEC3"
        },
        {
            "bufferView" : 10,
            "componentType" : 5126,
            "count" : 3239,
            "type" : "VEC3"
        },
        {
            "bufferView" : 11,
            "componentType" : 5123,
            "count" : 9294,
            "type" : "SCALAR"
        }
    ],
    "bufferViews" : [
        {
            "buffer" : 0,
            "byteLength" : 38844,
            "byteOffset" : 0
        },
        {
            "buffer" : 0,
            "byteLength" : 38844,
            "byteOffset" : 38844
        },
        {
            "buffer" : 0,
            "byteLength" : 18528,
            "byteOffset" : 77688
        },
        {
            "buffer" : 0,
            "byteLength" : 2160,
            "byteOffset" : 96216
        },
        {
            "buffer" : 0,
            "byteLength" : 2160,
            "byteOffset" : 98376
        },
        {
            "buffer" : 0,
            "byteLength" : 1464,
            "byteOffset" : 100536
        },
        {
            "buffer" : 0,
            "byteLength" : 50076,
            "byteOffset" : 102000
        },
        {
            "buffer" : 0,
            "byteLength" : 50076,
            "byteOffset" : 152076
        },
        {
            "buffer" : 0,
            "byteLength" : 24228,
            "byteOffset" : 202152
        },
        {
            "buffer" : 0,
            "byteLength" : 38868,
            "byteOffset" : 226380
        },
        {
            "buffer" : 0,
            "byteLength" : 38868,
            "byteOffset" : 265248
        },
        {
            "buffer" : 0,
            "byteLength" : 18588,
            "byteOffset" : 304116
        }
    ],
    "buffers" : [
        {
            "byteLength" : 322704,
            "uri" : "main.bin"
        }
    ]
}
